<svg xmlns="http://www.w3.org/2000/svg" viewBox="0 0 64 64"><path fill-rule="evenodd" d="M54 50v0c1.1 0 2-.9 2-2V16v0c0-1.11-.9-2-2-2H10v0c-1.11 0-2 .89-2 2v32 0c0 1.1.89 2 2 2ZM44 21v0c0-1.66-1.35-3-3-3H15v0c-1.66 0-3 1.34-3 3v22 0c0 1.65 1.34 3 3 3h26v0c1.65 0 3-1.35 3-3Zm6 1v0c-1.66 0-3 1.34-3 3 0 1.65 1.34 3 3 3 1.65 0 3-1.35 3-3v0c0-1.66-1.35-3-3-3Zm-9 22H15v0c-.56 0-1-.45-1-1V21v0c0-.56.44-1 1-1h26v0c.55 0 1 .44 1 1v22 0c0 .55-.45 1-1 1Zm-3.22-15.6v0c-1.32-1.55-3.26-2.43-5.29-2.4 -3.36-.02-6.29 2.99-8.96 2.99h-.04v0c-1.41.03-2.77-.55-3.71-1.6h0c-.34-.44-.97-.52-1.41-.19 -.43.32-.52.93-.21 1.37l-.001-.001c1.31 1.54 3.25 2.42 5.28 2.39l.05 0c3.3-.01 6.23-3 8.89-3h.03v0c1.41-.04 2.76.55 3.71 1.6l-.001 0c.33.43.95.52 1.39.19 .43-.34.52-.96.19-1.4Zm0 7v0c-1.32-1.55-3.26-2.43-5.29-2.4 -3.36-.02-6.29 2.99-8.96 2.99h-.04v0c-1.41.03-2.77-.55-3.71-1.6h0c-.34-.44-.97-.52-1.41-.19 -.43.32-.52.93-.21 1.37v0c1.31 1.54 3.25 2.42 5.28 2.39l.05 0c3.3-.01 6.23-3 8.89-3l.03 0v-.001c1.41-.04 2.76.55 3.71 1.6v0c.33.44.95.52 1.39.19 .44-.34.52-.96.19-1.4Z" fill="#55534E" /></svg>